<?xml version="1.0" encoding="UTF-8" standalone="no"?>
<!-- Created with Inkscape (http://www.inkscape.org/) -->

<svg
   width="210mm"
   height="297mm"
   viewBox="0 0 210 297"
   version="1.1"
   id="svg1"
   inkscape:version="1.4.2 (ebf0e940d0, 2025-05-08)"
   sodipodi:docname="small_logo.svg"
   xmlns:inkscape="http://www.inkscape.org/namespaces/inkscape"
   xmlns:sodipodi="http://sodipodi.sourceforge.net/DTD/sodipodi-0.dtd"
   xmlns="http://www.w3.org/2000/svg"
   xmlns:svg="http://www.w3.org/2000/svg">
  <sodipodi:namedview
     id="namedview1"
     pagecolor="#ffffff"
     bordercolor="#000000"
     borderopacity="0.25"
     inkscape:showpageshadow="2"
     inkscape:pageopacity="0.0"
     inkscape:pagecheckerboard="0"
     inkscape:deskcolor="#d1d1d1"
     inkscape:document-units="mm"
     inkscape:zoom="1.0387346"
     inkscape:cx="396.63646"
     inkscape:cy="561.25984"
     inkscape:window-width="2560"
     inkscape:window-height="1368"
     inkscape:window-x="0"
     inkscape:window-y="413"
     inkscape:window-maximized="1"
     inkscape:current-layer="layer1" />
  <defs
     id="defs1" />
  <g
     inkscape:label="Layer 1"
     inkscape:groupmode="layer"
     id="layer1">
    <path
       d="m 108.41554,211.37455 c 7.52671,-2.83881 28.4252,-15.15678 36.60712,-21.57695 14.29865,-11.21981 24.8572,-26.51232 27.24688,-39.46307 0.80906,-4.38471 1.21807,-55.729946 0.49583,-62.245281 -0.48174,-4.345736 -2.30368,-5.630998 -17.15937,-12.104817 -4.07459,-1.775622 -12.34943,-5.487922 -18.38854,-8.249555 -6.03912,-2.761634 -14.25443,-6.424792 -18.25625,-8.140356 -15.47275,-6.633093 -15.30692,-6.630344 -28.839587,-0.478322 -3.8563,1.753095 -9.27364,4.171926 -12.03854,5.37518 -21.727182,9.455444 -38.870809,17.506759 -40.365321,18.957134 -2.046552,1.986113 -1.938364,0.292261 -2.041834,31.968037 -0.100505,30.76728 -0.08685,31.12833 1.395211,36.90937 5.122577,19.98145 18.985296,34.90099 48.004294,51.6639 14.06794,8.12639 18.040877,9.38341 23.340107,7.38473 z m -6.61472,-4.5244 c -2.310117,-0.57694 -8.943457,-4.08474 -18.558357,-9.81393 -25.365086,-15.11419 -37.885055,-29.56262 -42.089846,-48.573 -0.626853,-2.83408 -1.038375,-40.47995 -0.590415,-54.010827 l 0.216662,-6.544365 0.792734,-0.783619 c 0.880068,-0.869948 7.120036,-3.861255 18.51982,-8.878004 4.074583,-1.793118 14.313958,-6.318692 22.754165,-10.056831 19.449567,-8.614148 18.940237,-8.409046 20.902077,-8.417094 2.84478,-0.01167 -0.33099,-1.341962 49.85251,20.882501 11.66377,5.165463 13.54864,6.134219 14.04844,7.220426 0.23537,0.511503 0.35199,7.952428 0.4586,29.260933 l 0.14298,28.575 -0.72371,2.91041 c -5.46971,21.99654 -20.54585,37.20117 -54.91527,55.38334 -5.3847,2.84862 -8.01953,3.54205 -10.81039,2.84506 z m 3.07872,-14.77058 c 0.317,-0.38741 1.89361,-6.02424 4.68071,-16.7349 2.12206,-8.15494 2.39173,-8.78551 4.00542,-9.36589 12.46867,-4.48449 19.98389,-12.03204 24.03401,-24.13741 0.51738,-1.5464 0.94069,-3.04986 0.94069,-3.34104 0,-1.01863 0.0378,-1.02968 12.43542,-3.63301 10.12843,-2.12683 11.13427,-2.46084 10.32978,-3.43019 -0.39127,-0.47146 -1.76982,-0.77895 -13.02205,-2.90467 -10.39186,-1.96318 -9.32412,-1.5438 -10.01141,-3.93229 -3.63448,-12.63054 -11.08268,-20.90085 -22.81431,-25.332482 l -2.31278,-0.873654 -0.50947,-1.361683 c -0.75992,-2.031085 -1.87623,-5.982775 -4.22412,-14.953303 -4.42691,-16.91372 -3.86539,-17.055666 -8.896527,2.248958 -3.78459,14.521585 -3.53452,13.929987 -6.26819,14.828247 -11.20908,3.683207 -20.107278,13.639907 -23.239259,26.003747 -0.367036,1.44891 -0.687732,1.58771 -6.211869,2.68836 -21.916229,4.36667 -21.877261,4.8729 0.661458,8.59333 5.339054,0.88131 5.1112,0.75946 5.793161,3.09787 3.822123,13.10591 11.263389,21.47503 23.117349,25.99983 2.00465,0.7652 2.66543,1.14474 2.94529,1.69174 0.64099,1.2528 2.18841,6.35209 4.228487,13.93437 3.0497,11.33467 3.35845,12.11143 4.33821,10.91407 z m -4.04229,-29.57497 c -19.338777,-1.5644 -32.180529,-23.64787 -24.350007,-41.87377 11.269,-26.229105 48.468797,-24.173546 56.941907,3.14645 5.70609,18.39824 -10.74367,40.08669 -29.54919,38.95959 -0.36381,-0.0218 -1.73302,-0.12632 -3.04271,-0.23227 z m 1.77965,-11.91067 c 10.88274,-2.21776 19.25472,-12.35485 19.25472,-23.31429 0,-1.75999 0.3968,-2.88946 1.60723,-4.57496 1.07736,-1.5002 0.86855,-1.84694 -0.98132,-1.62953 -1.604,0.18852 -1.66579,0.0944 -0.9104,-1.38625 0.66122,-1.29609 0.47804,-1.51256 -1.44579,-1.70856 -1.03293,-0.10523 -2.4831,-0.55888 -4.10104,-1.28292 -6.38898,-2.8591 -11.57619,0.29339 -12.11465,7.36257 l -0.17799,2.33677 -1.32291,-0.0829 c -3.659107,-0.22945 -9.919717,-3.25293 -15.002887,-7.24544 -2.15198,-1.69025 -2.88985,3.71718 -1.0044,7.36072 1.25084,2.41719 1.23131,2.31139 0.39718,2.15193 -3.06362,-0.58565 -1.70137,4.92563 1.92117,7.77246 1.70264,1.33806 1.8199,1.69416 0.61279,1.86098 -2.04031,0.28197 1.10291,3.77425 4.51761,5.01931 2.74272,1.00005 -0.70218,3.03547 -6.87186,4.06026 -2.04224,0.33922 -1.53722,1.66166 1.06146,2.77958 2.83995,1.22172 9.88411,1.47343 14.561087,0.52032 z m -6.991937,34.6197 c 1.11739,-1.1174 -0.73319,-4.53941 -2.77428,-5.13008 -18.27355,-5.28816 -31.036915,-18.23211 -35.682749,-36.1876 -0.959509,-3.70836 -1.15588,-3.94529 -3.387723,-4.0874 -2.115042,-0.13468 -2.23307,0.0263 -1.764651,2.4076 4.005156,20.36048 18.446384,36.04528 39.032103,42.39327 3.15231,0.97207 4.08616,1.09534 4.5773,0.60421 z m 23.086177,-1.16319 c 17.47521,-5.03102 31.74811,-19.10953 36.45435,-35.95785 2.25757,-8.08211 2.29655,-8.59992 0.64725,-8.59749 -2.85958,0.004 -3.15248,0.35037 -4.69051,5.54319 -5.03821,17.01039 -16.37881,28.94966 -32.33205,34.03885 -5.11771,1.63258 -5.55897,1.96488 -6.08201,4.58013 -0.38003,1.90014 0.55565,1.96143 6.00297,0.39317 z M 54.657176,124.38987 c 1.609632,-0.3452 1.611939,-0.34905 2.617938,-4.36559 4.405654,-17.58994 16.183739,-30.175801 33.037489,-35.303301 4.11783,-1.252787 4.38328,-1.434621 5.07214,-3.47445 1.00674,-2.981101 0.71497,-3.15966 -3.58654,-2.194912 -20.011643,4.488246 -36.517021,22.175203 -39.785255,42.633393 -0.485558,3.03944 -0.213505,3.31773 2.644228,2.70486 z m 102.122414,-0.35384 c 0.39969,-0.4816 0.0422,-2.54425 -1.17033,-6.75339 -5.67991,-19.716321 -20.527,-34.15526 -39.46969,-38.384662 -3.88481,-0.867375 -4.24136,-0.457006 -2.64069,3.039304 0.76354,1.667801 1.15672,1.911881 4.66858,2.898206 16.08795,4.518382 28.50896,17.375692 32.98205,34.140572 1.17007,4.38534 1.32761,4.78323 2.02792,5.1218 0.87528,0.42317 3.23324,0.38269 3.60216,-0.0618 z"
       style="fill:#313132;stroke-width:0.264583"
       id="path1" />
  </g>
</svg>
