<?xml version="1.0" encoding="UTF-8" standalone="no"?>
<!-- Created with Inkscape (http://www.inkscape.org/) -->

<svg
   width="90mm"
   height="90mm"
   viewBox="0 0 90 90"
   version="1.1"
   id="svg1"
   inkscape:version="1.4.2 (ebf0e940d0, 2025-05-08)"
   sodipodi:docname="small_logo_white.svg"
   xmlns:inkscape="http://www.inkscape.org/namespaces/inkscape"
   xmlns:sodipodi="http://sodipodi.sourceforge.net/DTD/sodipodi-0.dtd"
   xmlns="http://www.w3.org/2000/svg"
   xmlns:svg="http://www.w3.org/2000/svg">
  <sodipodi:namedview
     id="namedview1"
     pagecolor="#ffffff"
     bordercolor="#000000"
     borderopacity="0.25"
     inkscape:showpageshadow="2"
     inkscape:pageopacity="0.0"
     inkscape:pagecheckerboard="0"
     inkscape:deskcolor="#d1d1d1"
     inkscape:document-units="mm"
     inkscape:zoom="2.0774692"
     inkscape:cx="309.27053"
     inkscape:cy="220.9419"
     inkscape:window-width="2560"
     inkscape:window-height="1368"
     inkscape:window-x="0"
     inkscape:window-y="509"
     inkscape:window-maximized="1"
     inkscape:current-layer="layer1" />
  <defs
     id="defs1" />
  <g
     inkscape:label="Layer 1"
     inkscape:groupmode="layer"
     id="layer1">
    <rect
       style="fill:#000000;stroke-width:0.334114"
       id="rect2"
       width="90.806602"
       height="90.297173"
       x="-0.63679242"
       y="-5.4096736e-09"
       sodipodi:insensitive="true" />
    <path
       d="m 47.135688,88.649547 c 4.35464,-1.54538 16.44562,-8.250935 21.17933,-11.745906 8.2726,-6.107758 14.38133,-14.43258 15.76389,-21.482615 0.4681,-2.386907 0.70473,-30.337857 0.28687,-33.88462 -0.27871,-2.365703 -1.33281,-3.065363 -9.92768,-6.589533 -2.35739,-0.966599 -7.14486,-2.987473 -10.63883,-4.490834 -3.49398,-1.5033563 -8.24701,-3.4974803 -10.5623,-4.4313843 -8.95188,-3.610877 -8.85593,-3.60938 -16.685357,-0.260383 -2.231092,0.954334 -5.365335,2.271078 -6.96499,2.9261 C 17.016195,13.837653 7.0976157,18.220567 6.2329547,19.010113 c -1.184047,1.081184 -1.121452,0.159099 -1.181315,17.402527 -0.05815,16.748859 -0.05023,16.945414 0.807209,20.092445 2.963702,10.877361 10.9840853,18.999146 27.7732503,28.124412 8.139109,4.42378 10.437679,5.10807 13.503589,4.02005 z m -3.82699,-2.46296 C 41.972168,85.872517 38.134394,83.962957 32.57162,80.844155 17.896458,72.616405 10.652934,64.751069 8.2202197,54.402346 7.8575447,52.859547 7.6194567,32.366161 7.8786277,25.000321 l 0.12535,-3.562567 0.458647,-0.426582 c 0.509164,-0.473576 4.1193473,-2.101963 10.7147833,-4.832944 2.35738,-0.976126 8.281446,-3.439722 13.164594,-5.474662 11.252696,-4.6893073 10.958016,-4.5776573 12.093056,-4.5820343 1.64587,-0.0064 -0.1915,-0.730532 28.84255,11.3678603 6.74816,2.811935 7.83866,3.339301 8.12783,3.930599 0.13618,0.278452 0.20365,4.329082 0.26533,15.928856 l 0.0827,15.555445 -0.41871,1.584354 c -3.16455,11.974309 -11.88696,20.251286 -31.77165,30.149171 -3.11536,1.55071 -4.63976,1.92819 -6.25444,1.54877 z m 1.78121,-8.040703 c 0.18341,-0.210887 1.09557,-3.279424 2.70807,-9.110015 1.22773,-4.439329 1.38375,-4.782598 2.31736,-5.098539 7.21385,-2.441231 11.56183,-6.549908 13.90506,-13.139738 0.29934,-0.841824 0.54425,-1.660269 0.54425,-1.818772 0,-0.554523 0.0219,-0.56053 7.1946,-1.977713 5.85988,-1.157788 6.44182,-1.33961 5.97638,-1.867302 -0.22638,-0.256651 -1.02395,-0.424034 -7.53401,-1.581223 -6.01229,-1.068701 -5.39454,-0.840403 -5.79218,-2.140631 -2.10276,-6.875719 -6.41197,-11.377855 -13.19939,-13.790313 l -1.33808,-0.475596 -0.29476,-0.741262 c -0.43965,-1.10567 -1.0855,-3.256862 -2.44389,-8.140169 -2.56123,-9.2073643 -2.23635,-9.2846323 -5.14715,1.224273 -2.189606,7.905152 -2.044927,7.583101 -3.626513,8.07209 -6.485098,2.005038 -11.633221,7.425198 -13.445251,14.155733 -0.212349,0.788747 -0.397892,0.864306 -3.593925,1.463469 -12.6798043,2.377095 -12.6572573,2.652677 0.382693,4.677974 3.088953,0.479765 2.957123,0.413427 3.351677,1.686391 2.211322,7.134502 6.51652,11.690426 13.374719,14.153604 1.159806,0.416548 1.542105,0.623155 1.704021,0.920933 0.37085,0.681985 1.266119,3.457899 2.446419,7.585485 1.76443,6.170289 1.94306,6.593129 2.5099,5.941321 z M 42.751218,62.046082 C 31.562622,61.194467 24.132929,49.172833 28.663336,39.251151 c 6.519767,-14.278414 28.041992,-13.159423 32.944172,1.712842 3.3013,10.015492 -6.21583,21.822099 -17.09591,21.208534 -0.21049,-0.01182 -1.00265,-0.0687 -1.76038,-0.126445 z m 1.02963,-6.483842 c 6.29629,-1.207288 11.13996,-6.72564 11.13996,-12.691658 0,-0.958092 0.22957,-1.572944 0.92988,-2.490484 0.62331,-0.816668 0.5025,-1.005423 -0.56775,-0.887071 -0.92801,0.102629 -0.96376,0.05139 -0.52672,-0.754636 0.38255,-0.705557 0.27657,-0.823397 -0.83647,-0.930094 -0.59761,-0.05728 -1.43662,-0.304239 -2.37269,-0.698387 -3.6964,-1.556415 -6.6975,0.159714 -7.00903,4.007982 l -0.10298,1.272073 -0.76538,-0.04512 c -2.117,-0.124907 -5.73912,-1.770807 -8.680027,-3.944219 -1.245044,-0.920126 -1.671944,2.02353 -0.581102,4.006974 0.723683,1.315852 0.712384,1.258257 0.229791,1.171452 -1.772481,-0.318813 -0.984341,2.681375 1.111508,4.231104 0.985075,0.72841 1.052917,0.922258 0.354534,1.013074 -1.180437,0.153501 0.638097,2.054599 2.613698,2.732374 1.586821,0.544401 -0.406252,1.65243 -3.975767,2.210288 -1.181554,0.184671 -0.889371,0.904567 0.614116,1.513131 1.643074,0.665075 5.718527,0.802092 8.424419,0.283245 z M 39.73561,74.408252 C 40.382085,73.799973 39.311417,71.937128 38.130529,71.615582 27.558227,68.736849 20.173887,61.690527 17.486,51.916039 c -0.555131,-2.018722 -0.668743,-2.147697 -1.959991,-2.225068 -1.223672,-0.07332 -1.291959,0.01431 -1.020951,1.310639 2.31721,11.083683 10.672295,19.622065 22.582321,23.077729 1.823792,0.52917 2.364079,0.596277 2.648231,0.328913 z m 13.356678,-0.633207 c 10.11042,-2.738748 18.36812,-10.402703 21.09095,-19.574469 1.30613,-4.39968 1.32868,-4.681553 0.37447,-4.680229 -1.65443,0.0024 -1.82389,0.190726 -2.71373,3.017559 -2.9149,9.259992 -9.47609,15.759395 -18.70596,18.529811 -2.96089,0.888733 -3.21618,1.069633 -3.51879,2.493295 -0.21987,1.034395 0.32147,1.067753 3.47306,0.214033 z M 16.033382,41.297469 c 0.931269,-0.187917 0.9326,-0.190012 1.514629,-2.376507 2.548928,-9.575486 9.363226,-16.426884 19.114092,-19.21815 2.382403,-0.681985 2.535981,-0.780974 2.934526,-1.891396 0.582458,-1.622834 0.413652,-1.720032 -2.07502,-1.194854 -11.577888,2.44328 -21.127202,12.071572 -23.018062,23.208456 -0.280924,1.654588 -0.123527,1.806082 1.529835,1.472451 z m 59.083706,-0.19262 c 0.23124,-0.26217 0.0244,-1.385021 -0.67711,-3.67636 -3.28615,-10.733031 -11.87605,-18.59319 -22.83549,-20.895565 -2.24759,-0.472172 -2.45387,-0.248778 -1.52779,1.654517 0.44175,0.907905 0.66923,1.040776 2.70104,1.5777 9.30781,2.459688 16.49408,9.458852 19.08202,18.585199 0.67695,2.387259 0.7681,2.603859 1.17327,2.788167 0.5064,0.230362 1.87062,0.208326 2.08406,-0.03364 z"
       style="fill:#ffffff;stroke-width:0.148485"
       id="path1" />
    <path
       style="fill:#000000;stroke-width:0.127359"
       d="m 14.608019,41.238678 c -0.213447,-0.213448 -0.191992,-0.646348 0.103767,-2.093765 1.049705,-5.137152 3.590854,-9.824735 7.506253,-13.846567 3.178405,-3.264802 6.755914,-5.656719 10.877379,-7.272598 1.706293,-0.668976 4.589372,-1.446526 5.777796,-1.558238 0.975344,-0.09168 1.067229,0.04405 0.737849,1.089903 -0.350457,1.112778 -0.754377,1.41044 -2.692802,1.984396 -3.938183,1.166072 -6.83586,2.574328 -9.731965,4.729682 -4.703432,3.500411 -7.867222,8.244779 -9.658739,14.484091 -0.27762,0.966866 -0.590881,1.889371 -0.696134,2.050007 -0.28327,0.432324 -1.907743,0.74875 -2.223404,0.433089 z"
       id="path4" />
    <path
       style="fill:#000000;stroke-width:0.127359"
       d="m 44.395128,77.746648 c -0.14965,-0.318352 -0.58155,-1.622185 -0.95978,-2.897405 -0.37824,-1.275223 -1.07038,-3.608091 -1.5381,-5.18415 -0.913791,-3.079155 -1.472874,-4.708189 -1.773097,-5.166392 -0.12147,-0.185386 -0.674942,-0.476115 -1.561809,-0.820396 -4.496107,-1.745382 -7.403227,-3.784754 -9.750348,-6.839958 -1.257496,-1.636856 -2.405444,-3.772427 -3.20299,-5.958631 -0.255539,-0.700471 -0.555546,-1.522995 -0.666684,-1.827829 -0.153442,-0.420873 -0.305582,-0.597493 -0.632244,-0.733981 -0.236597,-0.09886 -2.040026,-0.437954 -4.00762,-0.753552 -5.756197,-0.923274 -8.080706,-1.438066 -8.332396,-1.845307 -0.1178,-0.190603 0.545386,-0.536443 1.637668,-0.854009 0.571174,-0.16606 3.187672,-0.728649 5.814441,-1.250193 3.15761,-0.626943 4.878392,-1.024636 5.078286,-1.173644 0.210292,-0.156763 0.447565,-0.659448 0.779332,-1.651103 2.117638,-6.329606 6.892034,-11.138707 13.055116,-13.150014 1.64446,-0.536665 1.571387,-0.376912 3.700735,-8.090556 1.37371,-4.976293 2.10864,-7.334911 2.4158,-7.753002 0.10344,-0.140798 0.25779,-0.207263 0.376,-0.161904 0.39433,0.151322 0.5198,0.539192 2.86923,8.870094 0.87099,3.088446 1.80139,6.055377 2.03692,6.495472 0.0598,0.111668 0.70029,0.420601 1.42339,0.686524 6.63783,2.441072 10.74548,6.592964 12.95076,13.090254 0.54455,1.604389 0.55105,1.615496 1.06555,1.821358 0.28471,0.113919 2.2715,0.521771 4.4151,0.906341 7.0908,1.272111 8.16397,1.51476 8.16397,1.845937 0,0.32409 -0.88793,0.547116 -7.57783,1.90337 -4.82401,0.977976 -5.41185,1.12641 -5.5401,1.398905 -0.049,0.104007 -0.30187,0.848182 -0.56203,1.653725 -1.74162,5.392584 -5.15702,9.404281 -10.18646,11.964926 -0.67737,0.344869 -1.78848,0.839253 -2.46914,1.098627 -2.01496,0.767834 -2.02635,0.775118 -2.37891,1.520367 -0.17583,0.371658 -0.86928,2.615253 -1.54101,4.985769 -2.08266,7.34963 -2.43658,8.449178 -2.71961,8.449178 -0.0605,0 -0.2325,-0.26047 -0.38214,-0.578821 z m 3.85517,-15.786852 c 5.13446,-1.061064 9.83356,-4.75843 12.30151,-9.679138 1.96204,-3.911981 2.29687,-8.046154 0.9543,-11.782642 -0.87669,-2.439897 -2.10618,-4.365191 -3.99166,-6.250675 -1.55138,-1.551379 -2.77534,-2.41559 -4.77501,-3.371543 -2.53337,-1.211088 -5.00712,-1.747385 -8.03661,-1.742305 -3.08527,0.0052 -5.411773,0.530151 -8.04547,1.81546 -4.101386,2.001578 -7.047029,5.303945 -8.562374,9.599292 -1.02952,2.918238 -1.054811,6.636128 -0.06643,9.764919 1.709703,5.412168 6.255525,9.796475 11.66785,11.253289 2.590054,0.697156 6.265824,0.866183 8.553894,0.393343 z"
       id="path5" />
    <path
       style="fill:#000000;stroke-width:0.127359"
       d="M 38.71698,74.441303 C 38.64693,74.417493 37.930541,74.215905 37.124998,73.993345 29.5453,71.899163 22.67781,67.006861 18.624257,60.813677 c -1.046797,-1.59934 -2.531719,-4.679791 -3.13103,-6.495283 -0.615322,-1.863989 -1.111012,-4.020002 -0.994218,-4.324363 0.07424,-0.193474 0.219571,-0.217834 1.04955,-0.175921 1.210776,0.06114 1.258322,0.117472 1.90724,2.259692 0.963944,3.182191 1.977581,5.392748 3.591021,7.83136 3.579208,5.409745 9.078703,9.329573 16.165192,11.521924 0.751364,0.232452 1.463566,0.541454 1.693084,0.734581 0.725633,0.610579 1.128779,1.79904 0.741601,2.186218 -0.142065,0.142062 -0.635339,0.189505 -0.929717,0.08942 z"
       id="path6" />
    <path
       style="fill:#ffffff;stroke-width:0.127359"
       d="m 14.575847,40.964402 c -0.123898,-0.493646 0.383011,-2.827538 1.051551,-4.841518 2.546494,-7.671326 8.954224,-14.436803 16.786999,-17.724227 2.362994,-0.991752 5.921883,-1.935507 6.875696,-1.823316 0.346876,0.0408 0.378994,0.08383 0.348638,0.467062 -0.04433,0.559555 -0.450855,1.336223 -0.873389,1.668589 -0.187449,0.147448 -1.063046,0.4977 -1.94577,0.778336 -5.331793,1.695091 -8.898757,3.708843 -12.155838,6.862658 -1.528129,1.47968 -2.453811,2.593573 -3.554937,4.277731 -1.519418,2.323928 -2.539838,4.579175 -3.651026,8.06919 -0.7447,2.338954 -0.809152,2.419049 -2.036128,2.530309 -0.739868,0.06709 -0.764424,0.0594 -0.845796,-0.264814 z"
       id="path22" />
    <path
       style="fill:#ffffff;stroke-width:0.127359"
       d="m 44.458847,77.675622 c -0.143415,-0.322392 -0.98175,-2.984087 -1.862966,-5.914874 -0.881215,-2.930789 -1.776465,-5.780563 -1.989441,-6.332831 -0.439053,-1.138502 -0.558271,-1.240869 -2.206138,-1.894313 -1.631911,-0.647118 -3.927277,-1.828131 -5.196171,-2.673535 -1.520579,-1.013093 -3.986781,-3.478054 -4.975407,-4.972908 -0.402215,-0.608168 -1.01259,-1.658249 -1.356387,-2.333516 -0.580519,-1.140214 -0.772717,-1.60097 -1.714349,-4.109813 -0.369546,-0.984599 -0.582656,-1.180711 -1.46931,-1.352121 -0.245165,-0.0474 -2.279717,-0.401529 -4.521226,-0.786966 -5.949569,-1.023051 -7.280328,-1.365266 -6.933618,-1.783025 0.248942,-0.299958 2.005179,-0.771178 5.660033,-1.518652 4.737802,-0.968957 6.323146,-1.334715 6.632832,-1.530271 0.171712,-0.108431 0.478692,-0.742511 0.872583,-1.802352 1.241509,-3.340526 2.784523,-5.807197 5.044226,-8.063727 2.154661,-2.151634 4.415629,-3.583954 7.458782,-4.725123 0.763291,-0.286231 1.494194,-0.616013 1.624232,-0.732848 0.542877,-0.487765 0.880927,-1.46762 2.445977,-7.089785 1.246926,-4.479359 2.149523,-7.452463 2.423076,-7.981451 0.484854,-0.937606 0.681257,-0.471931 2.546543,6.037899 1.643004,5.734081 2.417577,8.274786 2.676273,8.778568 0.13647,0.265762 0.473025,0.455954 1.54572,0.87351 3.447576,1.342001 5.784649,2.800639 7.938939,4.954929 2.227562,2.227562 3.812188,4.833752 4.961268,8.159657 0.229907,0.665449 0.539676,1.339028 0.688377,1.496844 0.304851,0.323537 1.040059,0.491789 6.822774,1.561367 5.879131,1.087411 6.494052,1.256353 5.833223,1.602594 -0.328945,0.172355 -2.991971,0.780238 -6.915771,1.57865 -3.423402,0.696595 -5.433145,1.15048 -5.682729,1.283406 -0.114927,0.06121 -0.442867,0.80291 -0.740339,1.674408 -1.216268,3.56331 -2.661578,5.954868 -5.030215,8.323503 -2.232563,2.232562 -4.580327,3.701971 -8.134917,5.091451 -0.686718,0.268436 -1.385599,0.625086 -1.553069,0.792554 -0.372473,0.372473 -0.740461,1.469959 -2.230366,6.651826 -1.492846,5.192104 -1.982494,6.755694 -2.213507,7.068394 -0.180348,0.244121 -0.199022,0.230333 -0.448932,-0.331449 z M 48.933771,61.852888 C 55.166728,60.230847 60.309339,55.088342 61.883273,48.903656 62.778806,45.384709 62.436501,42.115014 60.823487,38.780658 58.559919,34.1015 54.34309,30.777754 49.104922,29.543975 c -3.167888,-0.746154 -7.22994,-0.588317 -10.179285,0.395534 -1.56973,0.523634 -3.887062,1.738045 -5.189667,2.71967 -3.419946,2.577227 -5.816214,6.618333 -6.365155,10.734305 -0.183671,1.37718 -0.08649,4.079197 0.193672,5.384815 0.703868,3.280172 2.19877,5.967947 4.712465,8.472816 3.035628,3.02497 5.96198,4.369763 10.770216,4.949399 0.245166,0.02955 1.391391,0.03592 2.54717,0.01415 1.750354,-0.03298 2.308238,-0.09341 3.339433,-0.36177 z"
       id="path23" />
    <path
       style="fill:#ffffff;stroke-width:0.127359"
       d="m 37.124999,73.915007 c -4.529425,-1.333082 -8.646347,-3.459578 -12.099057,-6.249472 -2.566109,-2.073492 -5.423351,-5.299408 -6.836551,-7.718676 -0.766709,-1.312537 -2.049759,-4.044045 -2.499459,-5.321144 -0.507999,-1.442664 -1.213673,-4.279093 -1.123231,-4.514783 0.109263,-0.284734 1.622328,-0.256792 1.974969,0.03647 0.176535,0.14681 0.553026,1.07047 1.103135,2.706368 0.988759,2.940341 1.952698,4.979895 3.340679,7.068396 3.353622,5.046202 8.391285,8.831763 14.73857,11.075326 2.683714,0.948608 2.746987,0.975537 3.17518,1.3515 0.521293,0.4577 0.895374,1.267468 0.786294,1.70208 -0.06998,0.278839 -0.150981,0.325369 -0.557059,0.320008 -0.261342,-0.0034 -1.162904,-0.208684 -2.00347,-0.456075 z"
       id="path24" />
    <path
       style="fill:#ffffff;stroke-width:0.127359"
       d="M 42.792451,85.94211 C 40.992909,85.322052 34.164762,81.750909 29.877506,79.187555 19.944848,73.248807 13.870753,67.430567 10.559444,60.683213 9.6830326,58.897374 8.5444157,55.718132 8.2963783,54.364286 8.0279548,52.899166 7.8693715,43.958308 7.9145491,32.836892 L 7.9599053,21.671424 8.2754768,21.335533 C 9.0171369,20.546119 10.67775,19.807207 26.808961,13.088807 44.087629,5.8925102 43.194144,6.23783 44.574272,6.2227496 c 1.378598,-0.015063 1.928979,0.1974617 19.99648,7.7214754 14.894404,6.202613 16.079533,6.724404 16.611034,7.313566 0.232481,0.257699 0.250531,0.603868 0.3411,6.541352 0.0526,3.448087 0.09909,10.567601 0.103323,15.821139 l 0.0077,9.551887 -0.513537,1.783019 c -3.313512,11.504631 -11.624376,19.466581 -30.11329,28.849039 -3.728911,1.892289 -4.782585,2.287889 -6.304246,2.366909 -0.889981,0.04622 -1.229802,0.0055 -1.910376,-0.229026 z m 2.450864,-8.006958 c 0.122151,-0.249695 0.992921,-3.154198 1.935041,-6.454449 0.942121,-3.300249 1.824702,-6.219418 1.96129,-6.487041 0.347417,-0.680712 0.564835,-0.83289 1.867427,-1.307063 1.691195,-0.615632 4.038184,-1.785403 5.412737,-2.697779 1.657583,-1.100241 4.161105,-3.600154 5.213316,-5.205804 0.436081,-0.665448 1.069774,-1.785136 1.408207,-2.488197 0.641633,-1.332918 1.529419,-3.734723 1.529419,-4.137673 0,-0.328126 0.311311,-0.601414 0.863968,-0.758442 0.260313,-0.07396 2.870499,-0.623051 5.800415,-1.220197 6.544686,-1.333873 7.285641,-1.582058 6.41885,-2.149999 -0.365281,-0.239342 -1.076074,-0.387588 -7.092191,-1.479169 -2.693955,-0.488802 -5.101031,-0.988015 -5.349054,-1.109363 -0.42059,-0.205783 -0.490398,-0.332108 -1.036876,-1.876298 -0.701103,-1.981121 -1.060035,-2.794326 -1.780437,-4.033825 -2.46049,-4.233433 -6.195179,-7.217428 -11.28763,-9.018758 l -1.172863,-0.414872 -0.370705,-0.971461 c -0.388239,-1.0174 -1.2372,-3.88112 -2.942956,-9.927171 -1.065223,-3.775691 -1.412113,-4.644175 -1.881856,-4.711472 -0.519351,-0.0744 -0.848694,0.852333 -2.775048,7.808692 -1.459206,5.269418 -1.77377,6.292696 -2.183898,7.104302 -0.341857,0.676511 -0.384085,0.701509 -2.506472,1.483874 -5.665922,2.0886 -10.180438,6.863458 -12.129081,12.828537 -0.248028,0.759248 -0.524612,1.455118 -0.614631,1.546371 -0.230659,0.233822 -1.069873,0.434501 -4.91708,1.175797 -5.798287,1.11724 -7.768868,1.665314 -7.768868,2.160736 0,0.323003 0.209761,0.452604 1.209906,0.74753 1.117961,0.329671 2.619253,0.6115 7.168056,1.345626 1.98111,0.319728 3.791664,0.660564 4.023453,0.757412 0.391592,0.163616 0.459463,0.287628 0.958409,1.751158 1.514586,4.442656 3.909306,7.927438 7.063232,10.278374 1.916861,1.428827 3.222905,2.14275 5.729557,3.131942 0.82981,0.327464 1.6163,0.662559 1.747756,0.744654 0.447828,0.279675 1.025093,1.917284 2.67299,7.582847 1.667523,5.733039 1.975543,6.571049 2.387343,6.495066 0.118901,-0.02193 0.316124,-0.244187 0.438274,-0.493885 z M 39.79043,74.431937 c 0.449916,-0.449916 0.05041,-1.637216 -0.794149,-2.360123 -0.368253,-0.315212 -0.827395,-0.531427 -1.577441,-0.742837 -0.581895,-0.164015 -1.860351,-0.61042 -2.841011,-0.99201 C 27.682071,67.653714 22.510431,63.025104 19.421885,56.77242 18.912003,55.740177 18.305086,54.197768 17.812851,52.68325 17.293741,51.086043 16.922689,50.151675 16.731662,49.960648 16.477388,49.706376 16.313077,49.66981 15.424748,49.66981 c -1.2517,0 -1.267623,0.02912 -0.910496,1.665423 2.354759,10.789121 10.734033,19.345984 22.234266,22.705501 2.298301,0.671394 2.708916,0.724202 3.041912,0.391203 z m 12.681265,-0.430446 c 6.614303,-1.688753 12.379542,-5.28289 16.659725,-10.385927 1.850893,-2.206721 3.644392,-5.267989 4.588843,-7.832548 0.600731,-1.63123 1.420384,-4.554958 1.507027,-5.375611 0.07283,-0.689888 0.0601,-0.734616 -0.249296,-0.875586 -0.518281,-0.236145 -1.660292,-0.04121 -2.051722,0.350222 -0.286194,0.286194 -1.096086,2.105646 -1.096086,2.462395 0,0.07462 -0.26556,0.835847 -0.590135,1.69161 -2.337183,6.162181 -6.250434,10.918458 -11.609893,14.111005 -1.829144,1.089591 -3.718959,1.914432 -6.457989,2.818688 -2.49808,0.824709 -3.03112,1.086744 -3.310766,1.627523 -0.22421,0.433578 -0.441282,1.383872 -0.338447,1.651858 0.119348,0.31102 1.298205,0.177784 2.948739,-0.243629 z M 15.957571,41.374864 c 0.39437,-0.0792 0.809633,-0.24632 0.922807,-0.371375 0.113175,-0.125055 0.462493,-1.106188 0.776262,-2.180291 0.973711,-3.333231 2.027209,-5.675765 3.627543,-8.066124 2.317582,-3.461683 5.103074,-6.059791 8.80105,-8.208989 1.764739,-1.025634 3.717285,-1.847456 6.501109,-2.736297 2.579121,-0.823483 2.820612,-1.000889 3.199212,-2.350205 0.183737,-0.654831 0.193823,-0.828682 0.0576,-0.992816 -0.239358,-0.28841 -1.438656,-0.156271 -3.57871,0.394303 -10.575278,2.72072 -19.258696,11.438418 -21.544348,21.629404 -0.354752,1.58173 -0.418896,2.630427 -0.17576,2.873563 0.19034,0.190339 0.499794,0.192273 1.413232,0.0088 z m 59.19159,-0.179126 c 0.234815,-0.145121 0.06426,-1.316723 -0.454289,-3.120744 C 71.755163,27.847833 64.258306,20.1743 54.254714,17.153134 c -1.879579,-0.567649 -3.41318,-0.876729 -4.103105,-0.826936 -0.523388,0.03777 -0.54686,0.05742 -0.579544,0.485122 -0.04907,0.642227 0.669902,2.01469 1.224294,2.337063 0.234341,0.136268 1.199607,0.46929 2.145035,0.740051 4.987565,1.428382 9.050425,3.836423 12.451707,7.380075 3.108605,3.238724 5.066839,6.67346 6.454463,11.321112 0.665305,2.22835 0.806338,2.517508 1.302623,2.670739 0.429389,0.132577 1.748919,0.08992 1.998974,-0.06462 z"
       id="path26"
       sodipodi:nodetypes="ssssscssssssscssssssssssssssssssssscsssssssssssssssssssssssssssssssssssssssssssscssssssssssccsssssssssss" />
    <path
       style="fill:#000000;stroke-width:0.127359"
       d="m 43.047168,62.009866 c -4.26135,-0.373507 -7.674538,-1.941735 -10.642002,-4.889585 -2.407049,-2.391145 -4.004688,-5.301911 -4.718481,-8.596699 -0.288941,-1.333706 -0.32584,-4.624387 -0.06498,-5.794811 1.176009,-5.276509 4.5594,-9.538539 9.355823,-11.785457 3.637565,-1.704044 7.783184,-2.153055 11.792018,-1.277191 3.404571,0.743839 6.277499,2.305454 8.669129,4.71221 3.732453,3.756059 5.351885,8.533649 4.516466,13.324308 -0.874575,5.01518 -4.639236,10.052547 -9.36231,12.527399 -3.039343,1.592591 -5.802937,2.107875 -9.545664,1.779826 z m -0.382074,-6.225741 c 3.27906,-0.376079 6.148901,-1.772584 8.473363,-4.123262 2.3637,-2.390357 3.608705,-5.080582 3.823113,-8.261027 0.09915,-1.470742 0.223845,-1.885844 0.840316,-2.797331 0.740778,-1.095277 0.62932,-1.326597 -0.562991,-1.168432 -0.625456,0.08297 -0.63754,0.07829 -0.569782,-0.220644 0.03807,-0.167976 0.145883,-0.494252 0.239574,-0.725056 0.208677,-0.514069 0.102156,-0.606848 -0.838919,-0.730676 -0.353587,-0.04652 -1.410954,-0.341929 -2.349704,-0.656452 -1.423019,-0.476777 -1.870363,-0.572577 -2.690378,-0.576157 -1.297533,-0.0057 -2.112947,0.275244 -2.929168,1.0091 -0.992622,0.89245 -1.473266,2.007513 -1.635239,3.793641 l -0.08085,0.891508 -0.827831,-0.01791 c -1.628786,-0.03524 -4.820743,-1.379218 -7.479591,-3.149283 -0.697777,-0.464529 -1.383305,-0.8446 -1.523394,-0.8446 -0.48641,0 -0.732454,0.459237 -0.783071,1.461577 -0.05284,1.046488 0.177244,2.019456 0.722267,3.054212 0.18605,0.353227 0.357706,0.685215 0.381455,0.737748 0.02376,0.05254 -0.188822,0.09552 -0.472384,0.09552 -0.601671,0 -0.78078,0.225756 -0.776446,0.978657 0.0056,0.9769 0.927499,2.44802 2.101749,3.353948 0.74436,0.57427 0.812276,0.772097 0.305821,0.890802 -0.930674,0.218133 0.293963,1.742866 2.080927,2.590853 0.53177,0.252349 1.000149,0.51268 1.040839,0.578519 0.111982,0.181192 -0.292819,0.525815 -1.006935,0.857232 -0.548077,0.254362 -1.613641,0.534228 -3.493558,0.917569 -0.527106,0.107487 -0.7736,0.431425 -0.573284,0.753409 0.369864,0.594522 1.577774,1.094383 3.132244,1.296197 1.153662,0.14978 4.185927,0.15553 5.451853,0.01035 z"
       id="path27" />
    <path
       style="fill:#000000;stroke-width:0.127359"
       d="m 44.582812,77.752354 c -0.07784,-0.21014 -0.195609,-0.525351 -0.261715,-0.700471 -0.06611,-0.175117 -0.86233,-2.72547 -1.769385,-5.667452 -1.966002,-6.376606 -2.087414,-6.71391 -2.559706,-7.11132 -0.201459,-0.169513 -0.814327,-0.493651 -1.36193,-0.720304 -1.858586,-0.769263 -4.74976,-2.30754 -5.804005,-3.088074 -1.350868,-1.000146 -3.539877,-3.217825 -4.384289,-4.441708 -0.973487,-1.410967 -1.972347,-3.376893 -2.775021,-5.461706 -0.444478,-1.154454 -0.827455,-1.950382 -1.021669,-2.123298 -0.352932,-0.314221 -0.247065,-0.290962 -5.732357,-1.259498 -4.076025,-0.719701 -6.376554,-1.223476 -6.597896,-1.444816 -0.30331,-0.30331 1.36161,-0.776515 6.531773,-1.856459 5.104054,-1.066136 5.569252,-1.188665 5.845303,-1.539605 0.132707,-0.168712 0.486514,-0.923428 0.786238,-1.677149 1.437473,-3.614841 2.801204,-5.746467 5.172016,-8.08428 1.954916,-1.927704 3.77403,-3.148526 6.220113,-4.174355 2.897646,-1.215203 2.837204,-1.176656 3.24049,-2.066743 0.199292,-0.439856 1.118645,-3.432735 2.043007,-6.65084 1.672362,-5.822234 2.210104,-7.533424 2.443689,-7.776257 0.314867,-0.327335 0.631706,0.566851 2.594813,7.323112 1.716985,5.9092 2.29262,7.677309 2.585871,7.942697 0.129159,0.116886 0.745059,0.415671 1.368668,0.663968 6.490222,2.584146 10.257698,6.344259 12.702972,12.678148 0.314375,0.814311 0.648181,1.604616 0.741793,1.756227 0.252662,0.409208 1.261131,0.664152 6.601807,1.668963 4.858665,0.914125 6.240568,1.225333 6.240568,1.405393 0,0.20529 -1.153962,0.492246 -6.367925,1.583515 -5.887808,1.232305 -6.220548,1.31703 -6.429333,1.637107 -0.0986,0.151156 -0.44776,0.991221 -0.775912,1.866812 -1.294138,3.45308 -2.655736,5.64541 -4.900181,7.889854 -2.081331,2.081329 -4.054366,3.378795 -7.172997,4.716957 -2.24759,0.964409 -2.467853,1.095259 -2.739138,1.627214 -0.302303,0.592775 -1.047147,2.965366 -2.624133,8.358759 -0.673732,2.304217 -1.331854,4.396081 -1.462489,4.648586 l -0.237517,0.4591 z m 3.135564,-15.612369 c 1.449562,-0.201255 3.210385,-0.800275 4.887918,-1.662845 5.032848,-2.587832 8.746233,-7.56801 9.608891,-12.886889 1.331958,-8.212436 -4.638566,-16.307098 -13.405826,-18.175237 -0.789062,-0.168134 -1.966023,-0.29138 -3.232034,-0.338444 -4.19083,-0.155795 -7.140961,0.589066 -10.610188,2.678904 -3.813596,2.297281 -6.700501,6.465577 -7.531605,10.87461 -0.322585,1.711325 -0.197067,5.270317 0.243784,6.912366 0.863971,3.218053 2.241055,5.481244 4.884769,8.027948 2.633814,2.537169 5.140272,3.801795 8.820706,4.450458 1.560893,0.275104 4.774745,0.335553 6.333585,0.119129 z"
       id="path28" />
    <path
       style="fill:#000000;stroke-width:0.127359"
       d="m 14.64738,40.659197 c 0.0035,-1.470361 1.205859,-5.324567 2.431332,-7.79405 1.4544,-2.930806 3.067154,-5.172169 5.480119,-7.616124 2.570876,-2.603893 5.02541,-4.387236 8.198243,-5.956437 2.826245,-1.397787 6.621026,-2.608624 8.175469,-2.608624 h 0.707787 l -0.08225,0.41124 c -0.128243,0.641212 -0.508338,1.283258 -0.929121,1.569443 -0.211341,0.143739 -1.123336,0.509797 -2.026656,0.813461 -4.210039,1.415268 -6.94241,2.768962 -9.538626,4.725708 -3.174916,2.392905 -5.700572,5.402407 -7.423566,8.845713 -0.889323,1.777259 -1.223355,2.604227 -2.083453,5.158017 -0.899627,2.671162 -1.094514,2.929248 -2.211971,2.929248 h -0.698462 z"
       id="path29" />
    <path
       style="fill:#000000;stroke-width:0.127359"
       d="M 42.819714,88.774509 C 41.309102,88.365599 39.707264,87.680256 36.870282,86.229062 23.34674,79.311398 14.699289,72.641239 10.0356,65.530295 7.9068868,62.284545 6.289868,58.457969 5.5399063,54.891508 5.1761207,53.161516 5.0995508,50.374134 5.1025861,38.971696 5.1057108,27.227529 5.2307188,21.049758 5.4826076,20.191194 5.5656437,19.908165 5.8344318,19.496958 6.0947998,19.254628 7.0870952,18.331077 14.227294,15.131717 28.464621,9.2312179 31.056368,8.1570985 34.747655,6.613895 36.667484,5.8018771 c 3.981162,-1.6838873 5.273615,-2.1431276 6.657065,-2.365421 1.206318,-0.193832 2.523974,-0.029989 4.307525,0.535618 1.705243,0.5407731 7.826658,3.0244962 15.792453,6.4076829 3.747521,1.591626 8.504362,3.59876 10.570752,4.460297 6.544786,2.728705 7.972494,3.419816 9.081706,4.396183 0.841457,0.74068 1.104586,1.319351 1.23452,2.714947 0.206182,2.214537 0.262451,10.752178 0.130643,19.822399 -0.152474,10.492507 -0.266779,13.055242 -0.649221,14.555832 -1.896528,7.441419 -8.759825,16.031644 -17.439156,21.827159 -5.445146,3.635931 -15.883948,9.272847 -19.339361,10.443189 -1.335193,0.452228 -2.924956,0.518456 -4.194696,0.174746 z m 4.225835,-2.938234 c 1.315577,-0.483299 5.737709,-2.702619 9.099973,-4.566976 C 71.263469,72.886482 78.346323,65.43531 81.31689,54.788987 l 0.447257,-1.602944 -0.0085,-9.431464 C 81.750891,38.567272 81.703811,31.448758 81.650955,27.935661 81.567662,22.399145 81.52767,21.506712 81.350762,21.236715 80.944523,20.616719 79.816303,20.118681 62.660376,12.986109 45.729593,5.9471411 46.041606,6.0636429 44.323507,6.1393619 42.871842,6.2033387 43.98419,5.7725171 26.872641,12.898223 10.82514,19.58083 8.8420214,20.460453 8.150943,21.202328 l -0.3183962,0.341799 0.00489,14.285718 c 0.00564,16.48686 0.053739,17.782167 0.7494453,20.18384 2.3512769,8.116925 7.8371919,14.630942 17.8637689,21.21158 4.574616,3.002409 13.661671,7.95102 16.27812,8.864708 1.147948,0.400875 2.799122,0.303834 4.316778,-0.253698 z"
       id="path30" />
    <path
       style="fill:#000000;stroke-width:0.127359"
       d="m 37.055258,73.808779 c -4.245361,-1.239046 -8.61309,-3.515143 -12.029316,-6.268675 -2.130516,-1.717233 -4.653064,-4.468219 -6.202014,-6.763665 -0.884823,-1.311251 -2.673502,-5.022413 -3.204676,-6.649082 -0.520656,-1.594459 -1.057683,-3.905909 -0.935793,-4.0278 0.116166,-0.116165 1.089232,-0.124539 1.506497,-0.01296 0.387586,0.103639 0.533855,0.406696 1.51069,3.130034 1.259824,3.51229 2.328726,5.588716 4.098051,7.960799 3.287478,4.407426 7.946049,7.695205 14.116395,9.962626 1.085733,0.398973 2.185654,0.831564 2.444273,0.96131 0.619011,0.310552 1.128072,0.996085 1.213692,1.634429 l 0.06897,0.514202 -0.558043,-0.006 c -0.306925,-0.0033 -1.219851,-0.19915 -2.028727,-0.435227 z"
       id="path31" />
    <path
       style="fill:#000000;stroke-width:0.127359"
       d="m 73.264571,41.12878 c -0.506777,-0.154623 -0.646255,-0.419674 -1.168635,-2.220762 -1.8141,-6.254773 -4.993571,-11.003347 -9.773743,-14.59718 -2.953554,-2.220545 -5.605073,-3.46811 -10.366044,-4.877323 -0.652611,-0.193168 -1.198041,-0.438667 -1.361744,-0.612921 -0.381188,-0.405754 -0.950804,-1.694615 -0.901721,-2.040301 0.06468,-0.455527 0.896744,-0.435022 2.906371,0.07162 3.452542,0.87042 6.7119,2.287183 9.488207,4.124293 5.751221,3.805643 9.882944,9.263109 12.093228,15.973585 0.794568,2.412328 1.099225,3.845012 0.86701,4.077226 -0.196143,0.196144 -1.272275,0.257564 -1.782929,0.101759 z"
       id="path33" />
    <path
       style="fill:#ffffff;stroke-width:0.0450281"
       d="m 49.846647,74.311337 c -0.255145,-0.111538 -0.29696,-0.382389 -0.150016,-0.971725 0.122875,-0.492802 0.323035,-0.88502 0.552342,-1.082339 0.29551,-0.254288 0.923237,-0.536641 1.855515,-0.834615 2.016664,-0.64457 2.784991,-0.903531 3.399615,-1.145833 2.961521,-1.167509 5.445601,-2.628559 7.812363,-4.594958 0.785309,-0.652465 2.534761,-2.409502 3.202638,-3.216524 1.367943,-1.652934 2.396778,-3.207247 3.35307,-5.065651 0.816374,-1.5865 1.33795,-2.863647 2.048994,-5.01726 0.675621,-2.046316 0.918734,-2.486054 1.498886,-2.711164 0.21463,-0.08328 0.349263,-0.09875 0.890537,-0.102282 0.615603,-0.004 0.641718,-2.65e-4 0.754221,0.104991 0.246579,0.230974 0.145254,0.865863 -0.496403,3.110342 -0.706991,2.473026 -1.15044,3.677589 -1.951924,5.302138 -1.852358,3.754581 -4.543515,7.054027 -8.009202,9.819542 -3.79449,3.027892 -8.227364,5.13765 -13.133189,6.250541 -0.699132,0.158599 -1.454414,0.230439 -1.627447,0.154797 z"
       id="path34" />
    <path
       style="fill:#000000;stroke-width:0.127359"
       d="M 43.047168,62.009866 C 38.77392,61.635316 35.380916,60.076362 32.405166,57.120281 29.373308,54.108458 27.650268,50.339164 27.427462,46.231129 27.04574,39.193115 31.836823,32.514693 38.971696,30.139298 c 6.60523,-2.199061 14.219565,-0.351221 18.821683,4.567629 2.855849,3.052397 4.357563,6.671786 4.357563,10.502469 0,4.11631 -1.732675,8.142282 -4.944264,11.488301 -2.774661,2.890803 -6.18378,4.719809 -9.818642,5.267745 -1.319636,0.19893 -2.446528,0.21046 -4.340868,0.04442 z m 0.827831,-6.399435 c 5.328833,-1.105556 9.688261,-5.224849 10.802167,-10.20713 0.109625,-0.490331 0.236231,-1.407311 0.281345,-2.037736 0.102251,-1.428869 0.22746,-1.843826 0.843465,-2.795371 0.269762,-0.4167 0.490474,-0.826074 0.490474,-0.909725 0,-0.240329 -0.362042,-0.318127 -1.053555,-0.226396 -0.625456,0.08297 -0.63754,0.07829 -0.569782,-0.220644 0.03807,-0.167976 0.145883,-0.494252 0.239574,-0.725056 0.208677,-0.514069 0.102156,-0.606848 -0.838919,-0.730676 -0.353587,-0.04652 -1.410954,-0.341929 -2.349704,-0.656452 -1.954197,-0.654746 -3.147108,-0.755436 -4.322926,-0.364892 -1.716554,0.570148 -2.779165,2.36675 -2.979299,5.03723 l -0.03341,0.445754 -0.827831,-0.01791 c -1.628786,-0.03524 -4.820743,-1.379218 -7.479591,-3.149283 -0.697777,-0.464529 -1.383305,-0.8446 -1.523394,-0.8446 -0.48641,0 -0.732454,0.459237 -0.783071,1.461577 -0.05455,1.080365 0.189045,2.079519 0.753258,3.08956 0.204832,0.366686 0.372422,0.696228 0.372422,0.732311 0,0.03608 -0.227229,0.06561 -0.504955,0.06561 -0.590171,0 -0.770143,0.229984 -0.765833,0.978657 0.0056,0.9769 0.927499,2.44802 2.101749,3.353948 0.74436,0.57427 0.812276,0.772097 0.305821,0.890802 -0.930674,0.218133 0.293963,1.742866 2.080927,2.590853 0.53177,0.252349 1.000149,0.51268 1.040839,0.578519 0.241356,0.390523 -1.215636,1.069695 -3.202755,1.492951 -1.682287,0.358331 -1.865413,0.428665 -1.926627,0.739992 -0.125325,0.637371 1.255406,1.32611 3.212709,1.602566 1.142759,0.161409 5.580237,0.04476 6.636898,-0.174459 z"
       id="path35" />
    <path
       style="fill:#ffffff;stroke-width:0.127359"
       d="m 49.852042,74.195629 c -0.168957,-0.123547 -0.203927,-0.272039 -0.146865,-0.62367 0.195535,-1.204944 0.627415,-1.535208 3.011424,-2.302875 5.418974,-1.744951 8.983234,-3.804656 12.239636,-7.073011 3.152288,-3.163859 5.182886,-6.53242 6.852271,-11.367233 1.019316,-2.952104 1.129152,-3.106108 2.315515,-3.246615 0.736253,-0.0872 1.017484,0.07627 1.017484,0.591408 0,0.428069 -0.882034,3.668765 -1.411118,5.184613 -2.336427,6.693966 -7.90992,12.713994 -14.954448,16.152566 -2.312956,1.128999 -3.875972,1.71509 -6.092913,2.284688 -2.1137,0.543073 -2.550975,0.604877 -2.830986,0.400129 z"
       id="path36" />
    <path
       style="fill:#000000;stroke-width:0.127359"
       d="m 49.852042,74.195629 c -0.436499,-0.319177 -0.01955,-1.592286 0.674503,-2.059461 0.226038,-0.152151 1.53666,-0.656259 2.91249,-1.120238 4.982689,-1.680331 8.379228,-3.692689 11.499938,-6.813399 3.20613,-3.206131 5.461539,-7.022885 7.082533,-11.985553 0.450654,-1.37967 0.884542,-2.245834 1.213096,-2.421671 0.142195,-0.0761 0.542433,-0.171987 0.889421,-0.213082 0.722656,-0.08559 1.017484,0.07601 1.017484,0.557694 0,0.469911 -0.585086,2.68264 -1.21756,4.60466 -2.343951,7.123041 -7.819572,13.18423 -15.148006,16.767942 -2.32478,1.136852 -3.825905,1.70011 -6.064187,2.275422 -2.14303,0.550831 -2.578957,0.612976 -2.859712,0.407686 z"
       id="path37" />
    <path
       style="fill:#000000;stroke-width:0.127359"
       d="m 43.047168,62.018785 c -2.467827,-0.234498 -4.348276,-0.750912 -6.289852,-1.727335 -3.939998,-1.981428 -6.986418,-5.441715 -8.454237,-9.602772 -0.68589,-1.944401 -0.855935,-3.022888 -0.843391,-5.349057 0.0098,-1.826186 0.05389,-2.261298 0.33627,-3.322159 1.655543,-6.219584 6.313829,-10.756701 12.608975,-12.280989 4.313603,-1.044485 8.884335,-0.492067 12.843431,1.552257 3.161048,1.632244 5.671166,4.142235 7.2566,7.256227 1.161486,2.281317 1.645978,4.250605 1.645978,6.690341 0,4.128887 -1.71132,8.088554 -4.960628,11.47794 -2.546797,2.656591 -5.589855,4.391747 -8.985128,5.123331 -1.132417,0.244001 -3.59301,0.330927 -5.158018,0.182216 z m 0.827831,-6.42647 c 1.408044,-0.296177 2.353834,-0.633915 3.691033,-1.318048 4.301786,-2.200868 7.06864,-6.282984 7.393905,-10.908702 0.100391,-1.427676 0.225494,-1.842992 0.842039,-2.795371 0.269762,-0.4167 0.490474,-0.826074 0.490474,-0.909725 0,-0.238585 -0.360629,-0.318314 -1.035103,-0.228843 -0.712266,0.09449 -0.769143,-0.01233 -0.408847,-0.767887 0.279606,-0.586343 0.109313,-0.788924 -0.759391,-0.90338 -0.364223,-0.04799 -1.415291,-0.339527 -2.335707,-0.647861 -1.47628,-0.494549 -1.806456,-0.5606 -2.801888,-0.560512 -0.975722,8.7e-5 -1.231796,0.04909 -1.892554,0.362188 -1.606767,0.761352 -2.450316,2.3134 -2.641121,4.859409 l -0.03341,0.445754 -0.830831,-0.01781 c -1.5968,-0.03422 -4.411509,-1.202018 -7.320114,-3.037051 -0.864065,-0.54514 -1.639006,-0.948788 -1.783019,-0.928733 -0.389141,0.05419 -0.700045,0.80889 -0.700272,1.699858 -2.38e-4,0.929548 0.271777,1.921095 0.774464,2.823073 0.204359,0.366686 0.371565,0.696227 0.371565,0.732311 0,0.03608 -0.227229,0.06561 -0.504955,0.06561 -0.639873,0 -0.828764,0.301265 -0.727101,1.159663 0.124711,1.052986 0.891291,2.226588 2.067359,3.165041 0.381148,0.304139 0.692997,0.603147 0.692997,0.664459 0,0.06131 -0.137711,0.163838 -0.306023,0.227832 -0.435541,0.16559 -0.495252,0.327637 -0.276563,0.750531 0.295618,0.571664 1.246335,1.337937 2.29353,1.848572 0.521864,0.254471 0.981342,0.51526 1.021064,0.57953 0.234616,0.379614 -1.197796,1.056884 -3.135781,1.482651 -1.744284,0.383212 -2.016038,0.490363 -2.016038,0.794904 0,0.684606 1.350857,1.282289 3.629718,1.60596 0.930447,0.132151 5.257443,-0.03663 6.240566,-0.24343 z"
       id="path38" />
    <path
       style="fill:#000000;stroke-width:0.127359"
       d="m 36.947467,55.592212 c -1.30355,-0.201933 -2.729524,-0.865833 -2.791487,-1.299655 -0.0433,-0.303162 0.147206,-0.37879 1.695434,-0.673036 2.017623,-0.383456 3.66072,-1.188233 3.46537,-1.69731 -0.04373,-0.113964 -0.465394,-0.382175 -0.937025,-0.596022 -1.829035,-0.829323 -3.287119,-2.42053 -2.218028,-2.42053 0.127383,0 0.302321,-0.08521 0.388749,-0.189344 0.130392,-0.157114 0.07343,-0.260088 -0.334642,-0.604922 -1.55185,-1.311375 -2.465517,-2.671146 -2.465739,-3.669649 -1.27e-4,-0.578085 0.187095,-0.757782 0.789522,-0.757782 0.266178,0 0.483962,-0.05181 0.483962,-0.115128 0,-0.06332 -0.239043,-0.613307 -0.531206,-1.222193 -0.444024,-0.925367 -0.540478,-1.267214 -0.587693,-2.08284 -0.06346,-1.09625 0.177734,-1.928897 0.558753,-1.928897 0.11935,0 0.852995,0.411496 1.63032,0.914435 1.656204,1.071583 4.32422,2.381046 5.679826,2.78766 0.561713,0.168484 1.322432,0.291285 1.846699,0.298104 l 0.891508,0.01159 0.09182,-1.018868 c 0.116163,-1.289031 0.380465,-2.120828 0.932794,-2.935647 1.251071,-1.845627 3.318832,-2.229705 6.160529,-1.144291 0.659611,0.251947 1.624319,0.521298 2.143794,0.598559 0.530331,0.07888 0.971704,0.21136 1.006531,0.30212 0.03412,0.0889 -0.05876,0.398407 -0.206394,0.687789 -0.352549,0.691055 -0.253291,0.82132 0.554316,0.727459 0.988557,-0.114893 1.112094,0.03418 0.608935,0.734811 -0.678582,0.944909 -0.875556,1.550509 -0.967549,2.974737 -0.210407,3.257513 -1.554832,6.111901 -3.973859,8.437004 -2.421218,2.327209 -5.13978,3.612322 -8.335298,3.940244 -1.700361,0.17449 -4.248706,0.147817 -5.579938,-0.0584 z"
       id="path39" />
    <path
       style="fill:#ffffff;stroke-width:0.127359"
       d="M 43.047168,62.018785 C 38.6564,61.601563 35.343914,60.066739 32.34841,57.061565 c -6.594587,-6.615869 -6.589198,-16.4729 0.01254,-22.94023 2.43087,-2.381379 5.693378,-4.008453 9.348954,-4.6625 1.542203,-0.275929 4.587843,-0.27082 6.143236,0.01029 5.493594,0.992918 9.965499,4.108146 12.456083,8.677177 1.250225,2.29357 1.841719,4.571214 1.841719,7.091849 0,4.125807 -1.712269,8.08668 -4.960628,11.475075 -2.546797,2.656591 -5.589854,4.391747 -8.985128,5.12333 -1.132416,0.244002 -3.59301,0.330928 -5.158017,0.182216 z m -0.686295,-6.235867 c 4.736777,-0.419346 8.997395,-3.227512 11.158509,-7.354557 0.780028,-1.489609 1.20179,-2.896272 1.370158,-4.569769 0.193669,-1.924987 0.31202,-2.359287 0.894077,-3.28091 0.279858,-0.443124 0.508833,-0.864441 0.508833,-0.936263 0,-0.192873 -0.413295,-0.267194 -1.072602,-0.192881 -0.670227,0.07554 -0.725707,-0.0417 -0.371348,-0.784799 0.279027,-0.585129 0.114856,-0.779343 -0.755205,-0.893413 -0.366525,-0.04805 -1.354146,-0.321437 -2.194711,-0.607518 -1.690659,-0.575405 -3.249248,-0.758327 -4.222869,-0.495612 -1.779725,0.480227 -2.952364,2.167043 -3.197199,4.599112 l -0.09594,0.953029 -0.8299,-0.01781 c -1.593395,-0.03418 -4.466611,-1.224669 -7.319185,-3.032622 -0.866555,-0.549219 -1.638591,-0.953275 -1.783019,-0.933162 -0.143375,0.01998 -0.352054,0.230323 -0.477395,0.481227 -0.441188,0.883158 -0.190783,2.732117 0.547364,4.041704 0.206682,0.366686 0.375788,0.696227 0.375788,0.732311 0,0.03608 -0.196498,0.06561 -0.436658,0.06561 -0.865335,0 -1.055237,0.672967 -0.564684,2.001117 0.220065,0.595816 0.488984,0.952352 1.403064,1.860206 1.049346,1.042197 1.240261,1.360374 0.816261,1.360374 -0.09236,0 -0.235858,0.08185 -0.318881,0.181891 -0.365792,0.44075 0.70767,1.565796 2.22118,2.327915 0.490331,0.246901 0.961945,0.505608 1.04803,0.574908 0.487492,0.392419 -0.877414,1.096055 -3.053194,1.573987 -1.745607,0.38344 -2.006629,0.487979 -2.006629,0.803664 0,0.588484 1.444824,1.268466 3.247642,1.528451 1.075404,0.155085 3.440451,0.161475 5.108516,0.01381 z"
       id="path40" />
    <path
       style="fill:#ffffff;stroke-width:0.481355"
       d="M -2.4067746,170.64032 V 0 H 169.19625 340.79928 V 170.64032 341.28063 H 169.19625 -2.4067746 Z M 175.18243,336.16067 c 13.28124,-3.31138 65.55595,-31.93331 84.43582,-46.23108 15.2479,-11.54727 29.34469,-25.77955 39.15524,-39.53156 9.004,-12.62142 15.26158,-25.14179 18.16672,-36.34855 1.71966,-6.63368 2.09053,-14.69177 2.67769,-58.17966 0.57288,-42.43028 0.1068,-73.576672 -1.16272,-77.699684 -2.0138,-6.540188 -6.653,-9.278482 -37.58459,-22.184338 -7.94236,-3.313859 -25.91024,-10.893802 -39.92864,-16.844314 -57.69689,-24.49112 -64.11678,-26.824105 -73.67112,-26.772082 -7.38827,0.04023 -8.85735,0.542445 -40.19313,13.740382 C 117.94399,29.9567 102.79366,36.29223 93.410299,40.18874 49.160146,58.563949 25.488848,69.415161 22.225235,72.820839 c -0.881008,0.919359 -1.81029,2.510309 -2.065072,3.535446 -0.952155,3.831075 -1.446263,35.238225 -1.244763,79.121355 0.145587,31.70632 0.376599,46.04354 0.781714,48.51527 2.230345,13.60804 9.467594,31.64486 17.610529,43.88931 5.642589,8.4847 10.237813,13.97705 18.957027,22.65799 18.128231,18.04865 41.639766,34.1636 77.85584,53.36286 13.8106,7.32144 24.12464,11.68671 30.02151,12.70621 2.85689,0.49392 8.11744,0.28017 11.04041,-0.44861 z"
       id="path41"
       transform="scale(0.26458333)" />
  </g>
</svg>
