<?xml version="1.0" encoding="UTF-8" standalone="no"?>
<!-- Created with Inkscape (http://www.inkscape.org/) -->

<svg
   width="90mm"
   height="90mm"
   viewBox="0 0 90 90"
   version="1.1"
   id="svg1"
   inkscape:version="1.4.2 (ebf0e940d0, 2025-05-08)"
   sodipodi:docname="small_logo.svg"
   xmlns:inkscape="http://www.inkscape.org/namespaces/inkscape"
   xmlns:sodipodi="http://sodipodi.sourceforge.net/DTD/sodipodi-0.dtd"
   xmlns="http://www.w3.org/2000/svg"
   xmlns:svg="http://www.w3.org/2000/svg">
  <sodipodi:namedview
     id="namedview1"
     pagecolor="#ffffff"
     bordercolor="#000000"
     borderopacity="0.25"
     inkscape:showpageshadow="2"
     inkscape:pageopacity="0.0"
     inkscape:pagecheckerboard="0"
     inkscape:deskcolor="#d1d1d1"
     inkscape:document-units="mm"
     inkscape:zoom="2.0774692"
     inkscape:cx="329.96879"
     inkscape:cy="188.20977"
     inkscape:window-width="2560"
     inkscape:window-height="1368"
     inkscape:window-x="0"
     inkscape:window-y="413"
     inkscape:window-maximized="1"
     inkscape:current-layer="layer1" />
  <defs
     id="defs1" />
  <g
     inkscape:label="Layer 1"
     inkscape:groupmode="layer"
     id="layer1">
    <rect
       style="fill:#000000;stroke-width:0.334114"
       id="rect2"
       width="90.806602"
       height="90.297173"
       x="-0.63679242"
       y="-5.4096736e-09"
       sodipodi:insensitive="true" />
    <path
       d="m 46.498899,87.885396 c 4.354636,-1.54538 16.445618,-8.250935 21.179331,-11.745906 8.272594,-6.107758 14.381329,-14.43258 15.763889,-21.482615 0.468093,-2.386907 0.704724,-30.337857 0.286868,-33.88462 -0.278708,-2.365703 -1.332809,-3.065363 -9.927685,-6.589533 -2.357384,-0.966599 -7.144857,-2.987473 -10.63883,-4.4908342 -3.49398,-1.503356 -8.247011,-3.49748 -10.562295,-4.431384 -8.951878,-3.610877 -8.855935,-3.60938 -16.685359,-0.260383 -2.231092,0.954334 -5.365335,2.271078 -6.96499,2.9261 C 16.379402,13.073502 6.4608232,17.456416 5.5961622,18.245962 c -1.184047,1.081184 -1.121452,0.159099 -1.181315,17.402527 -0.05815,16.748859 -0.05023,16.945414 0.807209,20.092445 2.963702,10.877361 10.9840848,18.999146 27.7732498,28.124412 8.139114,4.42378 10.437683,5.10807 13.503593,4.02005 z m -3.826997,-2.46296 C 41.335371,85.108366 37.497601,83.198806 31.934827,80.080004 17.259665,71.852254 10.016141,63.986918 7.5834272,53.638195 7.2207522,52.095396 6.9826642,31.60201 7.2418352,24.23617 l 0.12535,-3.562567 0.458647,-0.426582 c 0.509164,-0.473576 4.1193468,-2.101963 10.7147828,-4.832944 2.35738,-0.976126 8.281446,-3.439722 13.164594,-5.4746622 11.252692,-4.689307 10.958015,-4.577657 12.093053,-4.582034 1.645869,-0.0064 -0.191498,-0.730532 28.842552,11.3678602 6.748164,2.811935 7.838665,3.339301 8.127831,3.930599 0.13618,0.278452 0.20365,4.329082 0.265331,15.928856 l 0.0827,15.555445 -0.418707,1.584354 C 77.53342,65.698804 68.811004,73.975781 48.926312,83.873666 c -3.115359,1.55071 -4.63976,1.92819 -6.254434,1.54877 z m 1.781218,-8.040703 c 0.183402,-0.210887 1.095563,-3.279424 2.708061,-9.110015 1.227733,-4.439329 1.383753,-4.782598 2.317366,-5.098539 7.213844,-2.441231 11.561832,-6.549908 13.905061,-13.139738 0.299333,-0.841824 0.544244,-1.660269 0.544244,-1.818772 0,-0.554523 0.02187,-0.56053 7.194607,-1.977713 5.859881,-1.157788 6.441818,-1.33961 5.976373,-1.867302 C 76.87246,44.113003 76.074889,43.94562 69.564825,42.788431 63.552535,41.71973 64.170284,41.948028 63.772648,40.6478 61.66989,33.772081 57.360678,29.269945 50.573253,26.857487 l -1.338077,-0.475596 -0.294757,-0.741262 c -0.439658,-1.10567 -1.085508,-3.256862 -2.443897,-8.140169 -2.561223,-9.2073642 -2.236351,-9.2846322 -5.14715,1.224273 -2.189603,7.905152 -2.044924,7.583101 -3.62651,8.07209 -6.485098,2.005038 -11.633221,7.425198 -13.445251,14.155733 -0.212349,0.788747 -0.397892,0.864306 -3.593925,1.463469 -12.6798038,2.377095 -12.6572568,2.652677 0.382693,4.677974 3.088953,0.479765 2.957123,0.413427 3.351677,1.686391 2.211322,7.134502 6.51652,11.690426 13.374719,14.153604 1.159806,0.416548 1.542105,0.623155 1.704021,0.920933 0.37085,0.681985 1.26612,3.457899 2.446419,7.585485 1.764427,6.170289 1.943057,6.593129 2.509905,5.941321 z M 42.114421,61.281931 C 30.925829,60.430316 23.496136,48.408682 28.026543,38.487 34.54631,24.208586 56.068532,25.327577 60.970716,40.199842 c 3.301302,10.015492 -6.215833,21.822099 -17.095911,21.208534 -0.210485,-0.01182 -1.002652,-0.0687 -1.760384,-0.126445 z m 1.02963,-6.483842 c 6.296294,-1.207288 11.139967,-6.72564 11.139967,-12.691658 0,-0.958092 0.229572,-1.572944 0.929875,-2.490484 0.623315,-0.816668 0.502506,-1.005423 -0.567751,-0.887071 -0.928005,0.102629 -0.963755,0.05139 -0.526718,-0.754636 0.382553,-0.705557 0.276574,-0.823397 -0.836473,-0.930094 -0.597609,-0.05728 -1.436616,-0.304239 -2.372688,-0.698387 -3.696393,-1.556415 -6.697494,0.159714 -7.009024,4.007982 l -0.10298,1.272073 -0.76538,-0.04512 c -2.117,-0.124907 -5.739124,-1.770807 -8.680031,-3.944219 -1.245044,-0.920126 -1.671944,2.02353 -0.581102,4.006974 0.723683,1.315852 0.712384,1.258257 0.229791,1.171452 -1.772481,-0.318813 -0.984341,2.681375 1.111508,4.231104 0.985075,0.72841 1.052917,0.922258 0.354534,1.013074 -1.180437,0.153501 0.638097,2.054599 2.613698,2.732374 1.586821,0.544401 -0.406252,1.65243 -3.975767,2.210288 -1.181554,0.184671 -0.889371,0.904567 0.614116,1.513131 1.643074,0.665075 5.718527,0.802092 8.424423,0.283245 z M 39.098817,73.644101 C 39.745292,73.035822 38.674624,71.172977 37.493736,70.851431 26.921434,67.972698 19.537094,60.926376 16.849207,51.151888 16.294076,49.133166 16.180464,49.004191 14.889216,48.92682 c -1.223672,-0.07332 -1.291959,0.01431 -1.020951,1.310639 2.31721,11.083683 10.672295,19.622065 22.582321,23.077729 1.823792,0.52917 2.364079,0.596277 2.648231,0.328913 z m 13.356681,-0.633207 c 10.110417,-2.738748 18.368113,-10.402703 21.090944,-19.574469 1.306134,-4.39968 1.328687,-4.681553 0.374472,-4.680229 -1.654433,0.0024 -1.823893,0.190726 -2.713731,3.017559 -2.914895,9.259992 -9.476087,15.759395 -18.705956,18.529811 -2.96089,0.888733 -3.216184,1.069633 -3.518794,2.493295 -0.219869,1.034395 0.321476,1.067753 3.473065,0.214033 z M 15.396589,40.533318 c 0.931269,-0.187917 0.9326,-0.190012 1.514629,-2.376507 2.548928,-9.575486 9.363226,-16.426884 19.114092,-19.21815 2.382403,-0.681985 2.535981,-0.780974 2.934526,-1.891396 0.582458,-1.622834 0.413652,-1.720032 -2.07502,-1.194854 -11.577888,2.44328 -21.127202,12.071572 -23.018062,23.208456 -0.280924,1.654588 -0.123527,1.806082 1.529835,1.472451 z m 59.083703,-0.19262 c 0.231243,-0.26217 0.02442,-1.385021 -0.677104,-3.67636 -3.286155,-10.733031 -11.876053,-18.59319 -22.835492,-20.895565 -2.247587,-0.472172 -2.453871,-0.248778 -1.527791,1.654517 0.441752,0.907905 0.669229,1.040776 2.701042,1.5777 9.307807,2.459688 16.494078,9.458852 19.082019,18.585199 0.676953,2.387259 0.768099,2.603859 1.173268,2.788167 0.506401,0.230362 1.870617,0.208326 2.084058,-0.03364 z"
       style="fill:#ffffff;stroke-width:0.148485"
       id="path1" />
  </g>
</svg>
