<?xml version="1.0" encoding="UTF-8" standalone="no"?>
<!-- Created with Inkscape (http://www.inkscape.org/) -->

<svg
   width="90mm"
   height="90mm"
   viewBox="0 0 90 90"
   version="1.1"
   id="svg1"
   inkscape:version="1.4.2 (ebf0e940d0, 2025-05-08)"
   sodipodi:docname="small_logo_white.svg"
   xmlns:inkscape="http://www.inkscape.org/namespaces/inkscape"
   xmlns:sodipodi="http://sodipodi.sourceforge.net/DTD/sodipodi-0.dtd"
   xmlns="http://www.w3.org/2000/svg"
   xmlns:svg="http://www.w3.org/2000/svg">
  <sodipodi:namedview
     id="namedview1"
     pagecolor="#ffffff"
     bordercolor="#000000"
     borderopacity="0.25"
     inkscape:showpageshadow="2"
     inkscape:pageopacity="0.0"
     inkscape:pagecheckerboard="0"
     inkscape:deskcolor="#d1d1d1"
     inkscape:document-units="mm"
     inkscape:zoom="2.0774692"
     inkscape:cx="309.75188"
     inkscape:cy="220.9419"
     inkscape:window-width="2560"
     inkscape:window-height="1368"
     inkscape:window-x="0"
     inkscape:window-y="680"
     inkscape:window-maximized="1"
     inkscape:current-layer="layer1"
     showguides="true" />
  <defs
     id="defs1" />
  <g
     inkscape:label="Layer 1"
     inkscape:groupmode="layer"
     id="layer1">
    <path
       d="m 47.517755,88.522187 c 4.35464,-1.54538 16.44562,-8.250935 21.17933,-11.745906 8.2726,-6.107758 14.38133,-14.43258 15.76389,-21.482615 0.4681,-2.386907 0.70473,-30.337857 0.28687,-33.88462 -0.27871,-2.365702 -1.33281,-3.065362 -9.92768,-6.589532 -2.35739,-0.966599 -7.14486,-2.987473 -10.63883,-4.490833 -3.49398,-1.5033567 -8.24701,-3.4974808 -10.5623,-4.4313848 -8.95188,-3.610877 -8.85593,-3.60938 -16.68536,-0.260383 -2.23109,0.954334 -5.36533,2.271078 -6.96499,2.9261001 C 17.398265,13.710294 7.4796857,18.093208 6.6150257,18.882754 c -1.18404,1.081183 -1.12145,0.159099 -1.18131,17.402526 -0.0581,16.748859 -0.0502,16.945414 0.80721,20.092445 2.9637,10.877361 10.9840793,18.999146 27.7732393,28.124412 8.13911,4.42378 10.43768,5.10807 13.50359,4.02005 z m -3.82699,-2.46296 c -1.33653,-0.31407 -5.17431,-2.22363 -10.73708,-5.342432 -14.67515,-8.22775 -21.91868,-16.093086 -24.3513893,-26.441809 -0.36268,-1.542799 -0.60076,-22.036185 -0.34159,-29.402025 l 0.12535,-3.562567 0.45864,-0.426582 c 0.50917,-0.473576 4.1193493,-2.101962 10.7147893,-4.832943 2.35738,-0.976126 8.28143,-3.439722 13.16458,-5.474661 11.2527,-4.6893078 10.95802,-4.5776578 12.09306,-4.5820348 1.64587,-0.0064 -0.1915,-0.730532 28.84255,11.3678598 6.74816,2.811934 7.83866,3.3393 8.12783,3.930598 0.13618,0.278452 0.20365,4.329082 0.26533,15.928856 l 0.0827,15.555445 -0.41871,1.584354 c -3.16455,11.974309 -11.88696,20.251286 -31.77165,30.149171 -3.11536,1.55071 -4.63976,1.92819 -6.25444,1.54877 z m 1.78121,-8.040703 c 0.18341,-0.210887 1.09557,-3.279424 2.70807,-9.110015 1.22773,-4.439329 1.38375,-4.782598 2.31736,-5.098539 7.21385,-2.441231 11.56183,-6.549908 13.90506,-13.139738 0.29934,-0.841824 0.54425,-1.660269 0.54425,-1.818772 0,-0.554523 0.0219,-0.56053 7.1946,-1.977713 5.85988,-1.157788 6.44182,-1.33961 5.97638,-1.867302 -0.22638,-0.256651 -1.02395,-0.424034 -7.53401,-1.581223 -6.01229,-1.068701 -5.39454,-0.840403 -5.79218,-2.140631 -2.10276,-6.875719 -6.41197,-11.377855 -13.19939,-13.790313 l -1.33808,-0.475596 -0.29476,-0.741262 c -0.43965,-1.10567 -1.0855,-3.256862 -2.44389,-8.140168 -2.56123,-9.2073637 -2.23635,-9.2846317 -5.14715,1.224273 -2.18961,7.905151 -2.04493,7.5831 -3.62652,8.072089 -6.48509,2.005038 -11.63321,7.425198 -13.44524,14.155733 -0.21235,0.788747 -0.39789,0.864306 -3.59392,1.463469 -12.6798093,2.377095 -12.6572593,2.652677 0.38269,4.677974 3.08895,0.479765 2.95712,0.413427 3.35168,1.686391 2.21131,7.134502 6.51651,11.690426 13.37471,14.153604 1.1598,0.416548 1.5421,0.623155 1.70402,0.920933 0.37085,0.681985 1.26612,3.457899 2.44642,7.585485 1.76443,6.170289 1.94306,6.593129 2.5099,5.941321 z m -2.33869,-16.099802 c -11.1886,-0.851615 -18.61828,-12.873249 -14.08788,-22.794931 6.51976,-14.278414 28.04199,-13.159423 32.94417,1.712842 3.3013,10.015492 -6.21583,21.822099 -17.09591,21.208534 -0.21049,-0.01182 -1.00265,-0.0687 -1.76038,-0.126445 z m 1.02963,-6.483842 c 6.29629,-1.207288 11.13996,-6.72564 11.13996,-12.691658 0,-0.958092 0.22957,-1.572944 0.92988,-2.490484 0.62331,-0.816668 0.5025,-1.005423 -0.56775,-0.887071 -0.92801,0.102629 -0.96376,0.05139 -0.52672,-0.754636 0.38255,-0.705557 0.27657,-0.823397 -0.83647,-0.930094 -0.59761,-0.05728 -1.43662,-0.304239 -2.37269,-0.698387 -3.6964,-1.556415 -6.6975,0.159714 -7.00903,4.007982 l -0.10298,1.272073 -0.76538,-0.04512 c -2.117,-0.124907 -5.73912,-1.770807 -8.68003,-3.944219 -1.24504,-0.920126 -1.67194,2.02353 -0.5811,4.006974 0.72368,1.315852 0.71238,1.258257 0.22979,1.171452 -1.77248,-0.318813 -0.98434,2.681375 1.11151,4.231104 0.98507,0.72841 1.05291,0.922258 0.35453,1.013074 -1.18044,0.153501 0.6381,2.054599 2.6137,2.732374 1.58682,0.544401 -0.40625,1.65243 -3.97577,2.210288 -1.18155,0.184671 -0.88937,0.904567 0.61412,1.513131 1.64307,0.665075 5.71853,0.802092 8.42442,0.283245 z m -4.04524,18.846012 c 0.64647,-0.608279 -0.42419,-2.471124 -1.60508,-2.79267 -10.5723,-2.878733 -17.95663,-9.925055 -20.64452,-19.699543 -0.55513,-2.018722 -0.66874,-2.147697 -1.95999,-2.225068 -1.22367,-0.07332 -1.29196,0.01431 -1.02095,1.310639 2.31721,11.083683 10.67229,19.622065 22.58231,23.077729 1.82379,0.52917 2.36408,0.596277 2.64823,0.328913 z m 13.35668,-0.633207 c 10.11042,-2.738748 18.36812,-10.402703 21.09095,-19.574469 1.30613,-4.39968 1.32868,-4.681553 0.37447,-4.680229 -1.65443,0.0024 -1.82389,0.190726 -2.71373,3.017559 -2.9149,9.259992 -9.47609,15.759395 -18.70596,18.529811 -2.96089,0.888733 -3.21618,1.069633 -3.51879,2.493295 -0.21987,1.034395 0.32147,1.067753 3.47306,0.214033 z m -37.0589,-32.477576 c 0.93127,-0.187917 0.9326,-0.190012 1.51463,-2.376507 2.54893,-9.575486 9.36323,-16.426884 19.11408,-19.21815 2.38241,-0.681984 2.53598,-0.780973 2.93453,-1.891395 0.58246,-1.622834 0.41365,-1.720032 -2.07502,-1.194854 -11.57788,2.44328 -21.12719,12.071571 -23.01805,23.208455 -0.28093,1.654588 -0.12353,1.806082 1.52983,1.472451 z m 59.0837,-0.19262 c 0.23124,-0.26217 0.0244,-1.385021 -0.67711,-3.67636 -3.28615,-10.733031 -11.87605,-18.593189 -22.83549,-20.895564 -2.24759,-0.472172 -2.45387,-0.248778 -1.52779,1.654517 0.44175,0.907905 0.66923,1.040776 2.70104,1.577699 9.30781,2.459688 16.49408,9.458852 19.08202,18.585199 0.67695,2.387259 0.7681,2.603859 1.17327,2.788167 0.5064,0.230362 1.87062,0.208326 2.08406,-0.03364 z"
       style="fill:#000000;stroke-width:0.148485"
       id="path1" />
  </g>
</svg>
